<mxfile host="65bd71144e">
    <diagram id="XLH2922I_8V2yOxC3HOH" name="Page-1">
        <mxGraphModel dx="752" dy="331" grid="1" gridSize="10" guides="0" tooltips="1" connect="1" arrows="1" fold="1" page="1" pageScale="1" pageWidth="850" pageHeight="1100" math="0" shadow="0">
            <root>
                <mxCell id="0"/>
                <mxCell id="1" parent="0"/>
                <mxCell id="2" value="read element:&lt;br&gt;Main Page (index.php):&lt;br&gt;user view:&lt;br&gt;all products&lt;br&gt;SELECT * FROM `products`&amp;nbsp;&lt;br&gt;&lt;br&gt;i need the connection: db_connect.php" style="whiteSpace=wrap;html=1;aspect=fixed;" parent="1" vertex="1">
                    <mxGeometry x="110" y="80" width="160" height="160" as="geometry"/>
                </mxCell>
                <mxCell id="3" value="create element:&lt;br&gt;Create Page:&lt;br&gt;user view:&lt;br&gt;form&lt;br&gt;INSERT INTO `products`(`name`, `price`, `picture`) VALUES ('[value-2]','[value-3]','[value-4]')&lt;br&gt;&lt;br&gt;i need the connection: db_connect.php" style="whiteSpace=wrap;html=1;aspect=fixed;" parent="1" vertex="1">
                    <mxGeometry x="280" y="80" width="160" height="160" as="geometry"/>
                </mxCell>
                <mxCell id="4" value="update element:&lt;br&gt;Updates:&lt;br&gt;user view:&lt;br&gt;form but not empty&lt;br&gt;UPDATE `products` SET `name`='[value-2]',`price`='[value-3]',`picture`='[value-4]' WHERE 1&lt;br&gt;&lt;br&gt;i need the connection: db_connect.php" style="whiteSpace=wrap;html=1;aspect=fixed;" parent="1" vertex="1">
                    <mxGeometry x="110" y="280" width="160" height="160" as="geometry"/>
                </mxCell>
                <mxCell id="5" value="read element:&lt;br&gt;Details&lt;br&gt;user view:&lt;br&gt;one product&lt;br&gt;SELECT * FROM products where id= 1 or 2 or 3&lt;br&gt;&lt;br&gt;i need the connection: db_connect.php" style="whiteSpace=wrap;html=1;aspect=fixed;" parent="1" vertex="1">
                    <mxGeometry x="280" y="280" width="160" height="160" as="geometry"/>
                </mxCell>
                <mxCell id="7" value="PHP" style="rounded=0;whiteSpace=wrap;html=1;" parent="1" vertex="1">
                    <mxGeometry x="110" y="460" width="120" height="60" as="geometry"/>
                </mxCell>
                <mxCell id="8" value="1. step:&lt;br&gt;mysqli_result" style="rounded=0;whiteSpace=wrap;html=1;" parent="1" vertex="1">
                    <mxGeometry x="110" y="540" width="120" height="60" as="geometry"/>
                </mxCell>
                <mxCell id="9" value="2. step:&lt;br&gt;asso array&lt;br&gt;key value pair&lt;br&gt;column name =&amp;gt;&amp;nbsp; value inside that column&lt;br&gt;&lt;br&gt;&quot;id&quot; =&amp;gt; 1&lt;br&gt;&quot;name&quot; =&amp;gt; hat" style="rounded=0;whiteSpace=wrap;html=1;" parent="1" vertex="1">
                    <mxGeometry x="280" y="540" width="180" height="230" as="geometry"/>
                </mxCell>
                <mxCell id="10" value="delete element" style="rounded=0;whiteSpace=wrap;html=1;" vertex="1" parent="1">
                    <mxGeometry x="480" y="80" width="140" height="170" as="geometry"/>
                </mxCell>
                <mxCell id="11" value="update element" style="rounded=0;whiteSpace=wrap;html=1;" vertex="1" parent="1">
                    <mxGeometry x="480" y="280" width="140" height="170" as="geometry"/>
                </mxCell>
            </root>
        </mxGraphModel>
    </diagram>
</mxfile>